<svg xmlns="http://www.w3.org/2000/svg" xml:space="preserve" width="1418.0533" height="200" viewBox="0 0 1418.0534 200"><path d="M495.59 422.267c-4.367 0-7.874 2.99-7.877 6.625.003 3.64 3.51 6.624 7.878 6.624 4.38 0 7.89-2.985 7.907-6.624-.016-3.635-3.527-6.625-7.907-6.625m0 19.398c-8.811-.01-16.007-5.68-16.02-12.773.013-7.08 7.209-12.752 16.02-12.77 8.83.018 16.03 5.678 16.037 12.77-.007 7.092-7.206 12.762-16.037 12.773m9.353 30.358v-10.447h-3.665v10.447h-7.453v-27.998h4.252c2.025.006 3.2 1.377 3.2 3.17v7.746h3.666v-10.916h4.243c2.024.006 3.196 1.377 3.205 3.17v24.828zm-27.345-24.852c-3.536 0-5.89 2.645-5.902 5.964.012 3.323 2.366 5.974 5.902 5.978 3.52-.004 5.883-2.655 5.9-5.978-.017-3.319-2.38-5.964-5.9-5.964m12.625 5.846c0 3.504-1.605 6.64-4.347 8.71h4.915v5.511h-9.024v4.785h-8.403v-4.785h-9.08v-5.512h5.032c-2.747-2.07-4.35-5.205-4.35-8.709.014-6.249 5.537-11.285 12.632-11.289 6.963.004 12.625 5.04 12.625 11.29m-106.665-4.823.13.076v5.672l-.441-.262c-1.9-1.169-4.701-1.582-8.32-1.582h-12.632c-.615 0-1.106.473-1.11 1.053v17.06h-8.974v-18.758c0-3.009 1.945-5.51 6.902-5.51h14.662c4.015 0 7.112.643 9.783 2.251m-14.45-15.088h18.985v-8.688c0-.586-.505-1.045-1.116-1.045h-16.76c-.611 0-1.11.46-1.11 1.045zm-8.383-10.38c.01-3.017 1.94-5.51 6.912-5.51h21.869c4.96 0 6.897 2.493 6.897 5.51v16.458h-35.678zm-37.767 47.205.009.28h-27.95v-6.069h18.74c-1.615-7.61-10.334-13.866-19.805-16.32l-.27-.077 1.47-5.2.269.053c14.136 2.87 27.029 11.064 27.537 27.333m110.533-2.81c4.589-.016 8.248-2.979 8.257-6.562-.01-3.59-3.668-6.56-8.257-6.56-4.606 0-8.275 2.97-8.275 6.56 0 3.583 3.669 6.546 8.275 6.562m0-19.205c8.957.023 16.299 5.612 16.309 12.643-.01 7.01-7.352 12.612-16.31 12.624-8.985-.012-16.313-5.615-16.33-12.624.017-7.03 7.345-12.62 16.33-12.643m-110.31-25.502c-4.331 0-7.8 2.982-7.805 6.606.005 3.637 3.474 6.613 7.806 6.613 4.312 0 7.767-2.976 7.782-6.613-.015-3.624-3.47-6.606-7.782-6.606m0 19.505c-8.83-.007-16.026-5.737-16.042-12.899.016-7.158 7.212-12.88 16.042-12.899 8.8.018 16.009 5.741 16.009 12.9 0 7.161-7.208 12.891-16.01 12.898m9.44 23.768h-8.615v-5.984h8.616v-5.184h-8.616v-5.937h8.616v-6.03h4.546c2.099 0 3.313 1.424 3.313 3.281v26.162h-7.86zm91.406-41.267v9.101h-8.635v-10.796c0-3.016 1.945-5.51 6.902-5.51h32.009v6.16h-29.165c-.62 0-1.111.471-1.111 1.045m-17.084 13.397h53.072v6.16h-53.072zm-10.54 34.178h-7.86V443.48h4.535c2.099.01 3.326 1.427 3.326 3.29v8.728h7.31v7.011h-7.31z" style="fill:#655c4f;fill-opacity:1;fill-rule:nonzero;stroke:none" transform="matrix(3.50496 0 0 -3.50496 -377.86 1658.491)"/><path d="M270.078 460.732h4.453c.29 0 .526.238.526.528v8.39a.525.525 0 0 1-.526.523h-6.248c-7.23 0-11.059-2.31-13.25-7.22l-13.596-33.294c-.82-1.99-2.01-2.935-4.35-2.935v42.927c0 .288-.24.522-.53.522h-9.983a.523.523 0 0 1-.529-.522v-51.447c0-.502.415-.926.925-.926h11.208c7.226 0 10.53 2.313 12.714 7.223l13.418 32.879c1.072 2.33 2.623 3.352 5.768 3.352M136.375 426.495h-16.893V438.9h16.893c4.547 0 7.627-2.777 7.627-6.2 0-3.428-3.08-6.205-7.627-6.205m11.631 17.226c4.016 1.67 7.328 5.415 7.328 11.617 0 9.23-7.92 14.835-17.475 14.835h-29.532a.52.52 0 0 1-.52-.521v-8.391c0-.29.232-.53.52-.53h27.48c4.435 0 7.433-2.712 7.433-6.046 0-3.336-2.998-6.044-7.433-6.044h-16.325v6.23a.524.524 0 0 1-.529.529h-10.626a.522.522 0 0 1-.52-.53v-37.068a.52.52 0 0 1 .52-.523h29.101c10.879 0 18.668 5.072 18.668 15.42 0 5.082-3 9.287-8.09 11.022M280.424 417.89l-17.13 21.897c-.048.065-.12.057-.147-.012l-4.607-11.28c-.031-.068-.031-.145.015-.205l7.488-10.033c.53-.713 1.127-.978 2.024-.978h12.062c.357 0 .499.343.295.61M174.853 455.4h-10.002a.523.523 0 0 1-.527-.53v-37.068c0-.291.232-.524.527-.524h10.002c.281 0 .523.233.523.524v37.069a.529.529 0 0 1-.523.529" style="fill:#d81920;fill-opacity:1;fill-rule:nonzero;stroke:none" transform="matrix(3.50496 0 0 -3.50496 -377.86 1658.491)"/><path d="M215.98 470.173h-9.991a.521.521 0 0 1-.521-.521v-42.928c-2.347 0-3.528.946-4.352 2.935l-13.602 33.294c-2.185 4.91-6.021 7.22-13.244 7.22h-9.418a.522.522 0 0 1-.527-.521v-8.392c0-.29.232-.528.527-.528h7.61c3.155 0 4.7-1.021 5.783-3.351l13.414-32.88c2.19-4.91 5.493-7.223 12.719-7.223h11.2c.507 0 .927.424.927.926v51.448a.522.522 0 0 1-.525.52" style="fill:#d81920;fill-opacity:1;fill-rule:nonzero;stroke:none" transform="matrix(3.50496 0 0 -3.50496 -377.86 1658.491)"/></svg>