<svg xmlns="http://www.w3.org/2000/svg" xmlns:xlink="http://www.w3.org/1999/xlink" width="584.12146" height="100" viewBox="0 0 584.12146 100"><defs><linearGradient id="a"><stop offset="0" style="stop-color:#00c7a9;stop-opacity:1"/><stop offset="0.4032259" style="stop-color:#50d58d;stop-opacity:1"/><stop offset="1" style="stop-color:#d6ee61;stop-opacity:1"/></linearGradient><linearGradient xlink:href="#a" id="b" x1="163.16551" x2="228.01335" y1="60.664104" y2="60.664104" gradientTransform="matrix(1.25 0 0 1.25 -165.205 -25.915)" gradientUnits="userSpaceOnUse"/></defs><path d="M33.744 0v33.745c33.82 0 61.335 27.514 61.335 61.335h33.745c0-52.51-42.57-95.08-95.08-95.08" style="fill:url(#b);fill-opacity:1;stroke-width:1.31602"/><path fill="#666" d="M482.505 57.54H466.23V35.008h-8.762v20.446h-16.274V3.5h16.274v17.737h8.762V2.982h16.275zM438.69 72.668c-17.837 0-25.975.94-25.975 7.3 0 6.26 8.138 7.096 25.975 7.096 17.319 0 27.229-.939 27.229-7.095 0-6.361-9.91-7.301-27.229-7.301M404.577 42.1h14.083V29.164h-14.083Zm34.112 57.9c-24.202 0-43.501-2.921-43.501-19.926 0-17.318 19.299-20.343 43.501-20.343 24.309 0 44.86 2.504 44.86 20.343 0 17.526-20.551 19.926-44.86 19.926M388.928 4.024h15.649v12.621h14.083V4.025h15.544v50.594h-45.276zM497.95 4.545h78.868v66.662h-17.316V51.491h-61.553V37.718h61.553V18.316h-61.553zm-4.797 75.947h90.968v14.187h-90.968zM237.975 0c-6.679 0-11.711 4.814-11.711 11.196 0 6.383 5.032 11.2 11.711 11.2 6.569 0 11.711-4.92 11.711-11.2C249.686 4.92 244.544 0 237.975 0M228.191 95.08H247.5V29.584H228.19zM341.775 3.934l-28.168 53.069-27.98-52.722-.182-.347H263.95v91.084h19.309V38.573l22.957 43.146.184.344h14.416l23.015-43.475v56.43h19.306V3.934Z" style="stroke-width:1.24999"/><path fill="#00c7a9" d="M33.742 95.079H0V33.744h33.742zM190.16 0v33.744c-33.822 0-61.336 27.515-61.336 61.335H95.081C95.08 42.569 137.648 0 190.159 0" style="stroke-width:1.24999"/></svg>