<svg xmlns="http://www.w3.org/2000/svg" width="774.069" height="200" viewBox="0 0 774.069 200"><path d="M199.898 95.548c.07 1.463.112 2.918.121 4.367v.079c0 46.265-31.411 85.193-74.082 96.614a101 101 0 0 1-21.421 3.287c-2.179.099-4.35.127-6.506.089-50.611-.992-92.005-39.578-97.411-88.989a97.38 97.38 0 0 1-.478-6.437A106.09 106.09 0 0 1 0 100.204v-.21C0 44.777 44.77 0 100.008 0c47.108 0 86.598 32.561 97.21 76.389a100.237 100.237 0 0 1 2.68 19.159Zm-47.103-45.736c-5.852-1.617-10.179-3.005-11.455-5.693-.604-1.272-.235-2.554.599-3.152.902-.659 2.118-.439 3.536.253 2.094 1.013 4.658 2.52 6.626 2.763 5.735.692 4.687-8.079-5.617-13.17-6.061-3.01-11.992-4.245-20.027-3.946-2.975.122-5.781.014-8.269-.379-3.756-.579-8.359-2.173-11.459-2.819-2.372-.5-3.724-.434-4.289.356-.524.748-.356 1.851 1.089 3.679 2.9 3.656 7.469 7.723 5.131 17.237-5.786 23.586 2.137 34.38 10.21 36.152 4.523 1.004 8.691-.056 11.235-2.697 2.417-2.529 3.462-6.808 1.132-10.431-3.564-5.549-4.823-10.373-1.637-12.38 2.909-1.837 7.044-.144 10.187 6.887 5.028 11.267 11.572 14.255 18.114 6.241 5.36-6.564 5.15-16.068-5.106-18.901Zm-18.21 61.562c-27.123-16.251-40.574-22.679-51.551-30.515-18.189-12.968-21.067-22.632-21.623-29.355-.992-12.033 8.115-22.865 17.386-27.971.714-.434 1.941-1.434 1.408-2.804-.539-1.384-2.199-1.117-2.822-.982C56.65 24.147 36.5 42.403 39.63 66.773c1.249 9.654 7.389 25.956 39.189 44.679 10.847 6.382 20.211 11.22 34.911 19.636 19.906 11.379 29.069 26.04 16.74 42.034-.936 1.117-1.74 2.276-1.404 3.286.379 1.168 1.918 1.37 3.354.724 9.463-4.357 17.277-10.897 21.001-16.961 6.552-10.677 9.818-31.617-18.836-48.797Zm-31.724 64.889c-2.404-.692-6.052-1.824-9.094-3.151-3.834-1.674-7.3-3.512-8.829-5.026-1.001-1.006-1.156-2.142-.356-3.31 4.584-6.586 5.875-9.196 7.156-12.296 2.723-6.562.033-7.198-4.191-5.984-4.593 1.315-8.226 2.656-11.042 3.712-3.948 1.474-6.39 2.376-7.826 1.675-1.496-.725-1.772-3.324-2.31-7.635-.379-3.066-1.024-6.564-1.847-9.977-1.699-6.839-4.626-5.525-7.044-2.729-3.012 3.656-4.672 8.181-5.922 10.556-.669 1.272-1.436 1.692-2.37 1.49-2.087-.444-4.842-3.673-7.85-7.512-4.392-5.614-6.35-9.929-8.638-10.196-4.859-.566-2.699 10.926 1.861 20.398 4.448 9.27 11.348 18.396 22.904 25.698 13.186 8.344 32.671 11.374 44.639 9.691 3.78-.533 4.528-4.32.759-5.404Z" style="fill-rule:nonzero;fill:#0046ff"/><path d="M364.068 164.95h-19.925V36.498h19.925V164.95Zm-70.294-85.71h19.241V51.385c0-4.917-.819-7.775-2.731-10.23-1.637-2.187-.677-3.824 1.51-3.824h21.018V161.26h-19.797V94.932h-19.241V79.24ZM240.95 57.114V41.691h62.512v15.423h-19.791v31.263c0 20.334 11.197 32.893 24.976 42.03l-7.775 10.66c-1.778 2.449-10.512-3.005-15.014-7.521-5.327-5.312-9.144-10.223-12.559-17.335-2.864 7.387-6.413 12.834-11.874 18.972-6.004 6.696-14.739 12.559-16.651 10.245l-9.419-11.056c16.651-11.331 26.754-28.109 26.754-45.995V57.114H240.95Z" style="fill-opacity:1;fill-rule:nonzero;stroke:none;stroke-width:3.24724;fill:#0046ff"/><path d="M390.272 55.35V39.913h99.497V55.35h-38.347v.678c0 15.691 25.654 28.8 48.175 34.402l-5.32 12.813c-1.094 3.02-18.972-2.857-27.022-6.809-10.922-5.468-21.16-12.558-26.487-20.079-5.044 7.662-14.605 13.934-24.835 19.247-9.285 5.059-28.935 11.331-30.437 7.782l-5.052-12.559c21.703-5.588 48.316-18.005 48.316-34.797v-.678h-38.488Zm114.786 57.192v15.416H451.14v36.992h-22.105v-36.992h-54.052v-15.416h130.075ZM605.508 63.527c0-8.311-8.191-13.779-28.934-13.779-20.751 0-28.935 5.468-28.935 13.779 0 8.333 8.184 13.793 28.935 13.793 20.743 0 28.934-5.46 28.934-13.793m21.018 0c0 16.108-15.148 28.405-49.952 28.405-34.805 0-49.953-12.297-49.953-28.405 0-16.094 15.148-28.391 49.953-28.391 34.804 0 49.952 12.297 49.952 28.391m-98.678 68.932c0-2.723-.959-4.776-2.871-7.091-1.637-2.046-.543-3.965 1.369-3.965h23.205v22.528c0 2.583 1.496 3.951 4.233 3.951h74.654v15.431h-84.214c-10.512 0-16.376-6.28-16.376-15.572v-15.282Zm113.692-19.247H511.466V98.346H641.54v14.866ZM774.069 36.502v71.126h-19.515V78.545h-9.144v25.393h-19.516V50.02c0-4.911-1.093-6.555-2.73-8.862-1.637-2.328-.55-3.831 1.227-3.831h21.019v25.111h9.144V36.502h19.515Zm-21.971 102.234c0-8.051-6.554-13.505-27.297-13.505-20.75 0-27.305 5.454-27.305 13.505 0 8.057 6.555 13.525 27.305 13.525 20.743 0 27.297-5.468 27.297-13.525m21.971 0c0 17.885-16.651 28.391-49.268 28.391-32.625 0-49.276-10.506-49.276-28.391 0-17.879 16.651-28.385 49.276-28.385 32.617 0 49.268 10.506 49.268 28.385m-89.266-47.082c8.876 0 12.559-7.239 12.559-14.47 0-7.642-3.683-14.88-12.559-14.88-8.869 0-12.552 7.238-12.552 14.88 0 7.231 3.683 14.47 12.552 14.47m-9.687-45.183c0-4.918-.275-7.225-2.73-10.089-1.771-2.195-.544-4.107 1.502-4.107h22.521V46.88h24.292v15.007h-9.143c3.139 4.241 5.051 9.299 5.051 15.163 0 17.603-11.465 29.336-31.806 29.336-20.334 0-31.799-11.733-31.799-29.336 0-5.864 1.912-10.922 4.918-15.163h-10.788V46.88h27.982v-.409Z" style="fill-opacity:1;fill-rule:nonzero;stroke:none;stroke-width:3.24725;fill:#0046ff"/></svg>