<svg xmlns="http://www.w3.org/2000/svg" xml:space="preserve" width="1293.0599" height="200.00002" viewBox="0 0 1293.0599 200.00002"><defs><radialGradient id="b" cx="0" cy="0" r="1" fx="0" fy="0" gradientTransform="matrix(0 109.91809 -121.25253 0 -79.69 325.573)" gradientUnits="userSpaceOnUse" spreadMethod="pad"><stop offset="0" style="stop-opacity:1;stop-color:#cce3f6"/><stop offset="0.07311279" style="stop-opacity:1;stop-color:#cce3f6"/><stop offset="0.25" style="stop-opacity:1;stop-color:#9acaee"/><stop offset="0.31187449" style="stop-opacity:1;stop-color:#9acaee"/><stop offset="0.699997" style="stop-opacity:1;stop-color:#406db9"/><stop offset="0.74124735" style="stop-opacity:1;stop-color:#406db9"/><stop offset="1" style="stop-opacity:1;stop-color:#18397a"/></radialGradient><radialGradient id="c" cx="0" cy="0" r="1" fx="0" fy="0" gradientTransform="matrix(77.72426 0 0 -77.72426 9.384 376.846)" gradientUnits="userSpaceOnUse" spreadMethod="pad"><stop offset="0" style="stop-opacity:1;stop-color:#cce3f6"/><stop offset="0.07311279" style="stop-opacity:1;stop-color:#cce3f6"/><stop offset="0.25" style="stop-opacity:1;stop-color:#9acaee"/><stop offset="0.31187449" style="stop-opacity:1;stop-color:#9acaee"/><stop offset="0.699997" style="stop-opacity:1;stop-color:#406db9"/><stop offset="0.74124735" style="stop-opacity:1;stop-color:#406db9"/><stop offset="1" style="stop-opacity:1;stop-color:#18397a"/></radialGradient><radialGradient id="d" cx="0" cy="0" r="1" fx="0" fy="0" gradientTransform="matrix(0 -109.90218 121.23503 0 85.503 316.096)" gradientUnits="userSpaceOnUse" spreadMethod="pad"><stop offset="0" style="stop-opacity:1;stop-color:#cce3f6"/><stop offset="0.07311279" style="stop-opacity:1;stop-color:#cce3f6"/><stop offset="0.25" style="stop-opacity:1;stop-color:#9acaee"/><stop offset="0.31187449" style="stop-opacity:1;stop-color:#9acaee"/><stop offset="0.699997" style="stop-opacity:1;stop-color:#406db9"/><stop offset="0.74124735" style="stop-opacity:1;stop-color:#406db9"/><stop offset="1" style="stop-opacity:1;stop-color:#18397a"/></radialGradient><radialGradient id="e" cx="0" cy="0" r="1" fx="0" fy="0" gradientTransform="matrix(-77.73347 0 0 77.73347 -3.574 264.814)" gradientUnits="userSpaceOnUse" spreadMethod="pad"><stop offset="0" style="stop-opacity:1;stop-color:#cce3f6"/><stop offset="0.07311279" style="stop-opacity:1;stop-color:#cce3f6"/><stop offset="0.25" style="stop-opacity:1;stop-color:#9acaee"/><stop offset="0.31187449" style="stop-opacity:1;stop-color:#9acaee"/><stop offset="0.699997" style="stop-opacity:1;stop-color:#406db9"/><stop offset="0.74124735" style="stop-opacity:1;stop-color:#406db9"/><stop offset="1" style="stop-opacity:1;stop-color:#18397a"/></radialGradient><clipPath id="a" clipPathUnits="userSpaceOnUse"><path d="M0 595.275h841.89V0H0Z"/></clipPath><clipPath id="f" clipPathUnits="userSpaceOnUse"><path d="M0 595.275h841.89V0H0Z"/></clipPath></defs><g clip-path="url(#a)" transform="matrix(2.15112 0 0 -2.15112 -258.97 740.253)"><path d="M0 0c9.67 0 17.535-4.282 17.535-9.541 0-5.275-7.865-9.567-17.535-9.567-9.664 0-17.527 4.292-17.527 9.567C-17.527-4.282-9.664 0 0 0m0-25.142c13.744 0 24.928 7 24.928 15.601 0 8.59-11.184 15.58-24.928 15.58-13.734 0-24.912-6.99-24.912-15.58 0-8.601 11.178-15.601 24.912-15.601m-31.268-12.114h62.545v6.122h-62.545zm15.227-5.326h-7.471v-18.323c0-1.928 1.78-3.554 3.887-3.554h45.412v6.115h-41.828zm-70.898 19.167c-5.842 0-10.596 4.892-10.596 10.906 0 6.019 4.754 10.917 10.596 10.917 5.847 0 10.601-4.898 10.601-10.917 0-6.014-4.754-10.906-10.601-10.906m32.138 14.053H-69.02c-1.63 7.97-9.128 13.737-17.919 13.737-10.073 0-18.264-7.576-18.264-16.884 0-9.302 8.191-16.866 18.264-16.866 8.89 0 16.392 5.832 17.945 13.896h14.193v-16.609h7.465V4.257h-7.465zm-.074-48.966h-32.113v7.787h32.113zm.074 13.83h-32.187v7.752h-7.539v-24.155c0-1.918 1.781-3.54 3.882-3.54h43.309v27.695h-7.465zM75.248-60.15c-9.42 0-17.078 3.855-17.078 8.593 0 4.745 7.658 8.609 17.078 8.609 9.426 0 17.098-3.864 17.098-8.609 0-4.738-7.672-8.593-17.098-8.593m.01 23.23c-13.49 0-24.467-6.568-24.467-14.637 0-8.078 10.977-14.646 24.467-14.646 13.49 0 24.465 6.568 24.465 14.646 0 8.069-10.975 14.637-24.465 14.637M92.992 4.257V-9.275h-6.246V4.257h-7.025v-37.264h7.025v17.623h6.246v-18.98h7.022V4.257Z" style="fill:#18397a;fill-opacity:1;fill-rule:nonzero;stroke:none" transform="translate(621.486 329.006)"/><path d="M0 0c7.526 3.72 13.569 9.459 17.012 16.253l-.241.121.246-.118.037.088.04-.088C20.531 9.459 26.567 3.72 34.116 0l3.494 4.784c-4.02 2.322-9.416 6.363-13.04 12.661-3.477 6.334-3.713 13.828-3.708 15.757v2.478h-7.633v-2.493c.005-1.997-.24-9.442-3.704-15.757C5.925 11.147.521 7.106-3.5 4.784Z" style="fill:#18397a;fill-opacity:1;fill-rule:nonzero;stroke:none" transform="translate(442.106 296.3)"/><path d="M0 0h-7.463v-20.279c.009-1.955 1.797-3.559 3.895-3.564h42.777v6.128H0Z" style="fill:#18397a;fill-opacity:1;fill-rule:nonzero;stroke:none" transform="translate(458.603 288.343)"/><path d="M0 0h-7.475v-49.937H0v26.457h10.25v6.121H0Z" style="fill:#18397a;fill-opacity:1;fill-rule:nonzero;stroke:none" transform="translate(497.102 333.209)"/><path d="m0 0-11.544.007-.077-.072-33.048-30.544V-.007h-7.778l.007-66.129h7.771v31.142L-8.12-66.136H4.231l-40.296 33.472z" style="fill:#18397a;fill-opacity:1;fill-rule:nonzero;stroke:none" transform="translate(296.748 330.683)"/><path d="M0 0h20.181c11.39-.025 17.169-4.06 17.172-10.981l.004-.185c-.007-7.134-5.982-11.435-15.867-11.46H-.257v51.772h19.688c9.312-.026 14.238-4.133 14.256-10.438v-.169C33.676 11.02 27.71 7.107 18.87 7.083L4.234 7.077Zm31.802 4.432c4.996 2.357 9.929 6.84 9.925 15.127v.192c0 4.278-1.534 7.832-4.302 10.688-3.817 3.729-9.793 5.903-17.333 5.906l-28.204-.015v-66.137h29.423c14.401.019 24.054 6.736 24.07 18.175v.189c.01 8.866-6.064 13.475-13.579 15.875" style="fill:#18397a;fill-opacity:1;fill-rule:nonzero;stroke:none" transform="translate(381.858 294.353)"/><path d="m0 0-.002-.005v-.002c-.013-14.394-10.45-25.498-26.912-25.512h-15.097l-.003 51.374h15.1C-10.461 25.845-.013 14.565-.002.17V0Zm-26.914 33.255h-23.038v-66.141h23.045c10.369 0 19.151 3.608 25.34 9.554C4.623-17.4 8.213-9.127 8.213.165c-.004 0 0 .01 0 .01v.192c0 9.3-3.59 17.531-9.78 23.428-6.189 5.896-14.974 9.46-25.347 9.46" style="fill:#18397a;fill-opacity:1;fill-rule:nonzero;stroke:none" transform="translate(355.927 297.433)"/></g><path d="M-78.866 319.035c-2.79-4.42-2.94-11.656-.013-16.215l31.12-48.9c2.814-4.336 9.267-8.093 15.841-8.093h41.7l-57.073 89.588c-4.155 6.484-7.509 19.959-4.216 26.487z" style="fill:url(#b);stroke:none;stroke-width:1.61334" transform="matrix(1.33333 0 0 -1.33333 108.022 527.769)"/><path d="M-31.955 375.386c-7.268 0-13.03-3.206-16.125-8.11l-3.427-5.374c-3.293-6.528.061-20.003 4.216-26.487l19.28-30.256c-2.303 4.58-.924 10.232.586 12.6l36.481 57.627z" style="fill:url(#c);stroke:none;stroke-width:1.61334" transform="matrix(1.33333 0 0 -1.33333 108.022 527.769)"/><path d="m-3.972 395.827 57.074-89.58c4.154-6.473 7.505-19.95 4.21-26.476l27.366 42.865c2.786 4.413 2.941 11.645.018 16.195l-31.128 48.921c-2.82 4.329-9.265 8.075-15.838 8.075z" style="fill:url(#d);stroke:none;stroke-width:1.61334" transform="matrix(1.33333 0 0 -1.33333 108.022 527.769)"/><path d="m33.235 323.907-36.482-57.633h41.012c7.27 0 13.03 3.208 16.123 8.119l3.425 5.378c3.294 6.526-.057 20.003-4.211 26.477l-19.278 30.261c2.297-4.591.92-10.235-.589-12.602" style="fill:url(#e);stroke:none;stroke-width:1.61334" transform="matrix(1.33333 0 0 -1.33333 108.022 527.769)"/><g clip-path="url(#f)" transform="matrix(2.15112 0 0 -2.15112 -258.97 740.253)"><path d="M0 0c-4.725 0-8.57 4.08-8.57 9.087 0 5.003 3.845 9.076 8.57 9.076 4.715 0 8.57-4.073 8.57-9.076C8.57 4.08 4.715 0 0 0m16.709 25.416H3.719v6.139h-7.508v-6.139h-13.19l-.005-5.868h6.562l-.416-.367c-3.066-2.763-4.767-6.465-4.767-10.419C-15.605.768-8.613-5.722 0-5.722c8.6 0 15.592 6.49 15.592 14.484 0 3.954-1.692 7.656-4.766 10.419l-.42.367h6.303z" style="fill:#18397a;fill-opacity:1;fill-rule:nonzero;stroke:none" transform="translate(679.225 302.563)"/></g></svg>