<svg width="10" height="16" viewBox="0 0 10 16" fill="none" xmlns="http://www.w3.org/2000/svg">
<path fill-rule="evenodd" clip-rule="evenodd" d="M5.48 10.901C8.211 10.227 10 7.837 10 5C10 3.67392 9.47322 2.40215 8.53553 1.46447C7.59785 0.526784 6.32608 0 5 0C3.67392 0 2.40215 0.526784 1.46447 1.46447C0.526784 2.40215 0 3.67392 0 5C0 7.837 1.789 10.227 4.52 10.901L4.276 11.388C4.26129 11.4174 4.25252 11.4494 4.25019 11.4822C4.24786 11.5151 4.25201 11.548 4.26241 11.5792C4.28342 11.6422 4.32859 11.6943 4.388 11.724C4.44741 11.7537 4.51618 11.7586 4.5792 11.7376C4.64221 11.7166 4.6943 11.6714 4.724 11.612L4.764 11.532C4.773 11.702 4.788 11.847 4.815 11.982C4.883 12.326 5.023 12.604 5.263 13.084L5.276 13.112C5.488 13.534 5.458 13.962 5.326 14.358C5.191 14.76 4.96 15.109 4.792 15.361C4.75513 15.4162 4.74169 15.4837 4.75463 15.5488C4.76757 15.6139 4.80584 15.6711 4.861 15.708C4.91617 15.7449 4.98371 15.7583 5.04879 15.7454C5.11387 15.7324 5.17114 15.6942 5.208 15.639L5.212 15.632C5.378 15.384 5.643 14.986 5.8 14.517C5.96 14.038 6.012 13.466 5.724 12.888C5.466 12.373 5.359 12.156 5.305 11.884C5.28566 11.7887 5.27329 11.6921 5.268 11.595L5.276 11.612C5.3057 11.6714 5.35779 11.7166 5.4208 11.7376C5.48382 11.7586 5.55259 11.7537 5.612 11.724C5.67141 11.6943 5.71658 11.6422 5.73759 11.5792C5.75859 11.5162 5.7537 11.4474 5.724 11.388L5.48 10.901ZM1.352 3.356C1.63379 2.731 2.07149 2.18891 2.6231 1.78177C3.17471 1.37463 3.82171 1.1161 4.502 1.031C4.774 0.997 5 1.224 5 1.5C5 1.776 4.774 1.996 4.502 2.042C3.552 2.204 2.753 2.822 2.329 3.659C2.28175 3.75792 2.2083 3.842 2.11662 3.90212C2.02495 3.96224 1.91856 3.99609 1.809 4C1.463 4 1.21 3.671 1.352 3.356Z" fill="#458D75"/>
</svg>
